<?xml version="1.0" encoding="utf-8"?>
<!-- Generator: Adobe Illustrator 27.7.0, SVG Export Plug-In . SVG Version: 6.00 Build 0)  -->
<svg version="1.1" xmlns="http://www.w3.org/2000/svg" xmlns:xlink="http://www.w3.org/1999/xlink" x="0px" y="0px"
	 viewBox="0 0 303.22 303.22" style="enable-background:new 0 0 303.22 303.22;" xml:space="preserve">
<style type="text/css">
	.st0{fill:#B9E52F;}
	.st1{fill:none;stroke:#FFFFFF;stroke-width:8;stroke-linecap:round;stroke-linejoin:round;stroke-miterlimit:10;}
	.st2{fill:none;stroke:#000000;stroke-width:8;stroke-linecap:round;stroke-linejoin:round;stroke-miterlimit:10;}
	.st3{fill:#A0A5B5;}
	.st4{fill:none;stroke:#B9E52F;stroke-width:3;stroke-linecap:round;stroke-linejoin:round;stroke-miterlimit:10;}
	.st5{fill:#FFFFFF;}
	.st6{fill:none;stroke:#B9E52F;stroke-width:8;stroke-linecap:round;stroke-linejoin:round;stroke-miterlimit:10;}
</style>
<g id="Layer_1">
</g>
<g id="Layer_2">
	<g>
		<circle class="st0" cx="151.61" cy="151.61" r="151.61"/>
		<g>
			<path class="st2" d="M200.18,98.68h-97.15c-14.42,0-26.11,11.69-26.11,26.11v60.4c0,14.42,11.69,26.11,26.11,26.11h30.28
				l18.3,32.51l18.3-32.51h30.28c14.42,0,26.11-11.69,26.11-26.11v-60.4C226.29,110.37,214.6,98.68,200.18,98.68z"/>
			<path class="st2" d="M70.71,186.06h6.21v-61.27h-6.21c-7.7,0-13.94,6.24-13.94,13.94v33.39
				C56.77,179.82,63.01,186.06,70.71,186.06z"/>
			<path class="st2" d="M232.51,186.06h-6.21v-61.27h6.21c7.7,0,13.94,6.24,13.94,13.94v33.39
				C246.45,179.82,240.21,186.06,232.51,186.06z"/>
			<line class="st2" x1="151.61" y1="98.68" x2="151.61" y2="81.82"/>
			<circle class="st2" cx="151.61" cy="66.61" r="15.21"/>
			<g>
				<circle class="st2" cx="114" cy="143.99" r="11.44"/>
				<circle class="st2" cx="189.21" cy="143.99" r="11.44"/>
			</g>
			<path class="st2" d="M171.97,174.37c0,8.21-9.12,14.86-20.36,14.86c-11.25,0-20.36-6.65-20.36-14.86"/>
		</g>
	</g>
</g>
<g id="Layer_3">
</g>
</svg>
