<?xml version="1.0" encoding="UTF-8"?>
<svg id="Layer_2" data-name="Layer 2" xmlns="http://www.w3.org/2000/svg" viewBox="0 0 54.57 51.3">
  <defs>
    <style>
      .cls-1 {
        fill: #b9e52f;
      }

      .cls-2 {
        fill: none;
        stroke: #b9e52f;
        stroke-linecap: round;
        stroke-linejoin: round;
        stroke-width: .8px;
      }
    </style>
  </defs>
  <path class="cls-1" d="m3.72,19.56h1.66v16.33h-1.66c-2.05,0-3.72-1.67-3.72-3.72v-8.9c0-2.05,1.67-3.72,3.72-3.72Z"/>
  <path class="cls-1" d="m52.91,19.56h1.66v16.33h-1.66c-2.05,0-3.72-1.67-3.72-3.72v-8.9c0-2.05,1.67-3.72,3.72-3.72Z" transform="translate(103.76 55.46) rotate(-180)"/>
  <line class="cls-2" x1="27.28" y1="12.6" x2="27.28" y2="8.11"/>
  <circle class="cls-1" cx="27.28" cy="4.05" r="4.05"/>
  <path class="cls-1" d="m40.23,12.6H14.33c-3.84,0-6.96,3.12-6.96,6.96v16.1c0,3.84,3.12,6.96,6.96,6.96h8.07l4.88,8.67,4.88-8.67h8.07c3.84,0,6.96-3.12,6.96-6.96v-16.1c0-3.84-3.12-6.96-6.96-6.96Zm-22.97,15.13c-1.68,0-3.05-1.36-3.05-3.05s1.36-3.05,3.05-3.05,3.05,1.36,3.05,3.05-1.36,3.05-3.05,3.05Zm10.03,10.01c-3.54,0-6.43-2.23-6.43-4.96,0-.55.45-1,1-1s1,.45,1,1c0,1.6,2.03,2.96,4.43,2.96s4.43-1.36,4.43-2.96c0-.55.45-1,1-1s1,.45,1,1c0,2.74-2.88,4.96-6.43,4.96Zm10.03-10.01c-1.68,0-3.05-1.36-3.05-3.05s1.36-3.05,3.05-3.05,3.05,1.36,3.05,3.05-1.36,3.05-3.05,3.05Z"/>
</svg>